<svg width="240" height="240" viewBox="0 0 240 240" fill="none" xmlns="http://www.w3.org/2000/svg" role="img" aria-labelledby="title desc">
  <title id="title">Jonas Meyer</title>
  <desc id="desc">Stilisiertes Demo-Portrait fuer die Bookanord Beispielbuchung</desc>
  <rect width="240" height="240" rx="120" fill="#EAF1FF"/>
  <circle cx="62" cy="63" r="43" fill="#C7D9FF" opacity=".9"/>
  <circle cx="184" cy="184" r="54" fill="#A9ECE1" opacity=".9"/>
  <path d="M63 204c8-37 30-59 57-59s49 22 57 59H63Z" fill="#2563EB"/>
  <circle cx="120" cy="104" r="41" fill="#DFA47F"/>
  <path d="M78 95c8-35 27-51 57-48 21 2 36 18 42 47-21-8-61-11-99 1Z" fill="#1A2235"/>
  <path d="M94 114c7 22 17 34 26 34s19-12 26-34c-18 6-34 6-52 0Z" fill="#DFA47F"/>
  <circle cx="106" cy="105" r="4" fill="#101B2E"/>
  <circle cx="134" cy="105" r="4" fill="#101B2E"/>
  <path d="M108 126c7 5 17 5 24 0" stroke="#101B2E" stroke-width="5" stroke-linecap="round"/>
  <path d="M92 87c19-16 44-19 65-6" stroke="#101B2E" stroke-width="10" stroke-linecap="round"/>
</svg>
